<svg width="1772" height="348" viewBox="0 0 1772 348" fill="none" xmlns="http://www.w3.org/2000/svg">
<path d="M967.1 340.2L968.5 79.4L1057.2 79.9C1082.5 80 1098.5 87.2 1110.7 98.5C1124 110.9 1132.1 128.8 1132 148.2C1131.9 166.1 1123.6 183.2 1111.3 194.7C1135.8 207.1 1153.9 234.1 1153.8 263.5C1153.7 287.7 1142.4 309.6 1124.8 323.7C1111.3 334.8 1094.2 341 1067.7 340.9L967.1 340.2ZM1061.1 305.3C1084.6 305.4 1095.8 300.3 1104 292.1C1111.5 284.3 1116.4 273.5 1116.5 261.6C1116.6 249.7 1111.8 239.2 1104.4 231.4C1096.2 223.2 1085.1 217.9 1061.6 217.8L1005 217.5L1004.5 305L1061.1 305.3ZM1049.9 182.3C1070.8 182.4 1079.7 178.4 1085.7 171.7C1091.3 165.8 1094.7 158 1094.8 149C1094.8 140.1 1091.5 132.2 1086 126.2C1080.1 119.5 1071.2 115.3 1050.3 115.2L1005.6 115L1005.2 182.1L1049.9 182.3Z" fill="white"/>
<path d="M1276.7 198.1C1272.6 197 1268.5 196.6 1262.9 196.5C1244.6 196.4 1225.2 209 1215.4 225.7L1214.8 341.6L1179.4 341.4L1180.4 166.3L1214.7 166.5L1214.6 186.6C1223.2 174.7 1241.6 162.9 1267.3 163C1271 163 1277 163.4 1281.1 164.2L1276.7 198.1Z" fill="white"/>
<path d="M1424.6 326.7C1410.4 339.3 1391.3 346.3 1370.5 346.1C1354.9 346 1338.5 341.5 1326.6 334.3C1300.2 318.5 1282.1 289.4 1282.3 254.3C1282.5 219.3 1301.3 190 1327.8 174.5C1339.8 167.5 1354.3 163.5 1370.7 163.6C1390.4 163.7 1409.4 169.8 1425.4 183.6L1425.5 167.6L1459.8 167.8L1458.8 342.9L1424.5 342.7L1424.6 326.7ZM1424.1 222.4C1413.4 208.2 1395.6 197.3 1374.3 197.2C1340.4 197 1317.9 224.1 1317.7 254.6C1317.5 285.9 1341.6 312.5 1375.5 312.7C1393.4 312.8 1411.7 304 1423.7 288L1424.1 222.4Z" fill="white"/>
<path d="M1505.2 296.6C1521.5 309.4 1539.4 316.2 1556.9 316.3C1572.2 316.4 1587.5 308.3 1587.6 294.5C1587.7 274.4 1558.7 273.1 1533 264.4C1511.8 257.2 1492.9 243.7 1493 219.1C1493.2 181.5 1526.8 164.5 1558.1 164.7C1583.8 164.8 1602.4 173.1 1616.1 184.4L1597.7 209.6C1586.9 201.3 1574.3 195.7 1560.2 195.6C1543.1 195.5 1528.5 203.6 1528.4 217.4C1528.3 229.3 1542.1 233.5 1559.6 238.1C1587.1 245.3 1623.2 257.8 1623 294C1622.8 327.2 1591.8 347.5 1557.5 347.3C1529.6 347.1 1506.1 338.4 1486.9 322.7L1505.2 296.6Z" fill="white"/>
<path d="M1673.3 83.3C1686.3 83.4 1696.7 93.9 1696.6 106.9C1696.5 119.9 1686 129.9 1673 129.9C1660 129.8 1650 119.7 1650 106.7C1650.1 93.6 1660.3 83.2 1673.3 83.3ZM1655.3 168.9L1690.7 169.1L1689.7 344.2L1654.3 344L1655.3 168.9Z" fill="white"/>
<path d="M1735.9 79.9L1771.3 80.1L1769.8 344.6L1734.4 344.4L1735.9 79.9Z" fill="white"/>
<path d="M159.1 0.700012C70.6 0.700012 0.200012 73.3 0.200012 171.1C0.200012 269.5 66.7 341 159.1 341C247.6 341 318 268.4 318 170.6C318 73.9 251.5 0.700012 159.1 0.700012ZM159.1 265.1C112.4 265.1 81.1 227.3 81.1 171.1C81.1 114.6 112.5 76.6 159.1 76.6C205.8 76.6 237.1 114.4 237.1 170.6C237.2 227.2 205.8 265.1 159.1 265.1Z" fill="white"/>
<path d="M549.2 251.6H436.6V18.9C436.6 8.29999 430.5 2.20001 419.9 2.20001H369.1C358.5 2.20001 352.4 8.29999 352.4 18.9V297.4C352.4 319.2 364.1 330.9 385.9 330.9H549.3C559.9 330.9 566 327.6 566 317V271.2C566 260.6 559.8 251.6 549.2 251.6Z" fill="white"/>
<path d="M878 276.4L784.7 170.7L785.7 169.6H785.1L875.8 64.9C883.7 55.9 883.1 46.3 874.1 37.9L839.8 7.00001C830.8 -1.39999 820.7 -0.899981 812.8 8.70002L731.8 108.8L646.3 8.70002C638.4 -0.299981 628.3 -1.39999 619.3 7.00001L583.9 38.5C574.9 46.9 574.3 55.9 582.8 65.5L676.1 171.2L675.1 172.3H675.7L585 277C577.1 286 577.7 295.6 586.7 304L621 334.9C630 343.3 640.1 342.8 648 333.2L731.8 235.9L814.4 333.2C822.3 342.2 832.4 343.3 841.4 334.9L876.8 303.4C885.9 294.9 886.5 285.9 878 276.4Z" fill="white"/>
</svg>
