<svg id="Layer_1" xmlns="http://www.w3.org/2000/svg" viewBox="-245 384 120 26"><style>.st0{fill:#fff}</style><path class="st0" d="M-206.1 407h-4.3l-4.9-16.6h3.8l3.4 13.7 3.3-13.7h3.6l-4.9 16.6zm9.7-14.9c0 1-.8 1.8-1.9 1.8-1.1 0-1.9-.8-1.9-1.8s.8-1.8 1.9-1.8c1.1 0 1.9.8 1.9 1.8zm-.3 14.9h-3.2v-12h3.2v12zm9.2 0h-3.8l-3.9-11.9h3.5l2.4 9.4 2.4-9.4h3.3l-3.9 11.9zm15.4-1.8l-.7 2.1c-1.4-.1-2.3-.6-2.7-1.7-.9 1.3-2.2 1.8-3.6 1.8-2.4 0-3.9-1.5-3.9-3.7 0-2.6 2-4 5.5-4h1.4v-.7c0-1.5-.6-2-2.1-2-.8 0-1.9.2-3.2.6l-.7-2.1c1.5-.6 3.1-.9 4.4-.9 3.3 0 4.7 1.5 4.7 4.2v4.8c0 1 .3 1.4.9 1.6zm-4-1.5v-2.3h-1.1c-1.7 0-2.6.6-2.6 1.9 0 1.1.5 1.7 1.5 1.7s1.7-.4 2.2-1.3zm11.3-3.2h-1.8v6.5h-3.5v-16.5h5.2c4.4 0 6.7 1.6 6.7 5 0 2.2-1.1 3.5-3.3 4.5l4.3 7.1h-4l-3.6-6.6zm-1.8-2.5h1.8c1.8 0 2.8-.8 2.8-2.6 0-1.7-1-2.4-3.1-2.4h-1.6v5h.1zm20.1 4h-7.5c.2 2.3 1.3 3 2.8 3 1 0 1.9-.3 2.9-1l1.3 1.8c-1.2.9-2.7 1.6-4.5 1.6-3.8 0-5.8-2.5-5.8-6.3 0-3.6 1.9-6.4 5.4-6.4 3.4 0 5.4 2.3 5.4 6.1.1.3 0 .8 0 1.2zm-3.1-2.2c0-1.8-.6-3-2.1-3-1.3 0-2 .8-2.2 3.1h4.4l-.1-.1zm15.5 5.4l-.7 2.1c-1.4-.1-2.3-.6-2.8-1.7-.9 1.3-2.2 1.8-3.6 1.8-2.4 0-3.9-1.5-3.9-3.7 0-2.6 2-4 5.5-4h1.4v-.7c0-1.5-.6-2-2.1-2-.8 0-1.9.2-3.2.6l-.7-2.1c1.5-.6 3.1-.9 4.4-.9 3.3 0 4.7 1.5 4.7 4.2v4.8c.2 1 .5 1.4 1 1.6zm-4-1.5v-2.3h-1.1c-1.7 0-2.6.6-2.6 1.9 0 1.1.5 1.7 1.5 1.7s1.7-.4 2.2-1.3zm5.8.3v-14.2l3.3-.4v14.5c0 .5.2.8.7.8.3 0 .5 0 .6-.1l.7 2.3c-.5.2-1.3.4-2.1.4-2 0-3.2-1.2-3.2-3.3zm-88.7 3v-10.1l-5-1.8v12.7c-2 .1-3.5 0-3.5 0l-.3-17.4 14.2 6.4L-230 384s1 0-4 3.4v-2.5l2 .7-1.8-1.6-4.2 4.3v2.7c-2 2.3-3.9 3.3-5 4.4-2.6 2.9-2.7 6.3-.4 8.9 2 2.2 6.6 4.9 13.9 4.9 6.8 0 13.2-3 16-6.6-1.8 1.9-4.5 3.3-7.5 4.4zm-18-2.4c-4-1.5-3.3-4.4-2.2-6.2 1.1-1.8 2.2-2.1 2.2-2.1v8.3zm6-4.2l-4 .9v-4.7l4-1.5v5.3z"/><title>logo</title><title>logo</title></svg>